<svg width="45" height="46" viewBox="0 0 45 46" fill="none" xmlns="http://www.w3.org/2000/svg">
<circle cx="25.8125" cy="18.8125" r="2.8125" fill="#2D3250"/>
<path d="M35 25.25V36C35 39.7712 35 41.6569 33.8284 42.8284C32.6569 44 30.7712 44 27 44H9.25C5.47876 44 3.59315 44 2.42157 42.8284C1.25 41.6569 1.25 39.7712 1.25 36V18.25C1.25 14.4788 1.25 12.5931 2.42157 11.4216C3.59315 10.25 5.47876 10.25 9.25 10.25H18.125" stroke="#2D3250" stroke-width="2"/>
<mask id="mask0_195_326" style="mask-type:alpha" maskUnits="userSpaceOnUse" x="1" y="10" width="34" height="34">
<path d="M1 18C1 14.2288 1 12.3431 2.17157 11.1716C3.34315 10 5.22876 10 9 10H26.75C30.5212 10 32.4069 10 33.5784 11.1716C34.75 12.3431 34.75 14.2288 34.75 18V35.75C34.75 39.5212 34.75 41.4069 33.5784 42.5784C32.4069 43.75 30.5212 43.75 26.75 43.75H9C5.22876 43.75 3.34315 43.75 2.17157 42.5784C1 41.4069 1 39.5212 1 35.75V18Z" fill="#273B4A"/>
</mask>
<g mask="url(#mask0_195_326)">
<path d="M8.07232 25.4277L3.51935 29.9806C2.27866 31.2213 1.65831 31.8417 1.35362 32.6357C1.04893 33.4297 1.09504 34.3058 1.18726 36.058L1.9375 50.3125H34.75V38.8754C34.75 37.1208 34.75 36.2435 34.404 35.4666C34.058 34.6897 33.4059 34.1028 32.1017 32.929L28.1958 29.4137C26.8602 28.2117 26.1924 27.6107 25.3949 27.6316C24.5974 27.6526 23.9621 28.2879 22.6915 29.5585L19.9638 32.2862C19.0174 33.2326 18.5442 33.7058 18.0232 33.6054C17.5022 33.5051 17.2386 32.89 16.7113 31.6598L14.5773 26.6804L14.5773 26.6804C13.5229 24.22 12.9956 22.9898 11.9536 22.7891C10.9115 22.5885 9.96513 23.5349 8.07232 25.4277Z" fill="#424769" fill-opacity="0.25" stroke="#2D3250" stroke-width="1.5"/>
</g>
<path fill-rule="evenodd" clip-rule="evenodd" d="M34.4352 19.0498C34.4352 19.6021 34.8829 20.0498 35.4352 20.0498C35.9874 20.0498 36.4352 19.6021 36.4352 19.0498V11.2717H43.9497C44.502 11.2717 44.9497 10.824 44.9497 10.2717C44.9497 9.7194 44.502 9.27169 43.9497 9.27169H36.4352V1.75C36.4352 1.19772 35.9874 0.75 35.4352 0.75C34.8829 0.75 34.4352 1.19772 34.4352 1.75V9.27169H26.75C26.1977 9.27169 25.75 9.7194 25.75 10.2717C25.75 10.824 26.1977 11.2717 26.75 11.2717H34.4352V19.0498Z" fill="#2D3250"/>
</svg>
