<svg width="29" height="29" viewBox="0 0 29 29" fill="none" xmlns="http://www.w3.org/2000/svg">
<path fill-rule="evenodd" clip-rule="evenodd" d="M8.36251 0.423164C8.9148 0.423164 9.36251 0.87088 9.36251 1.42316V3.27089H19.4963V1.42317C19.4963 0.870881 19.944 0.423164 20.4963 0.423164C21.0486 0.423164 21.4963 0.870881 21.4963 1.42317V3.27089H21.8588C25.7248 3.27089 28.8588 6.40489 28.8588 10.2709V21.555C28.8588 25.421 25.7248 28.555 21.8588 28.555H7C3.134 28.555 0 25.421 0 21.555V10.2709C0 6.40489 3.13401 3.27089 7 3.27089H7.36251V1.42316C7.36251 0.87088 7.81023 0.423164 8.36251 0.423164ZM19.4963 5.27089V7.16971C19.4963 7.722 19.944 8.16971 20.4963 8.16971C21.0486 8.16971 21.4963 7.722 21.4963 7.16971V5.27089H21.8588C24.6202 5.27089 26.8588 7.50946 26.8588 10.2709V21.555C26.8588 24.3164 24.6202 26.555 21.8588 26.555H7C4.23857 26.555 2 24.3164 2 21.555V10.2709C2 7.50946 4.23858 5.27089 7 5.27089H7.36251V7.16971C7.36251 7.72199 7.81023 8.16971 8.36251 8.16971C8.9148 8.16971 9.36251 7.72199 9.36251 7.16971V5.27089H19.4963ZM4.14513 12.4746C4.14513 11.37 5.04056 10.4746 6.14513 10.4746H10.3346V10.4746H11.3346H17.5242H18.5242H22.7137C23.8183 10.4746 24.7137 11.37 24.7137 12.4746V16.6641V17.6641V18.6641V22.8536C24.7137 23.9582 23.8183 24.8536 22.7137 24.8536H18.5242H17.5242H11.3346H10.3346H6.14512C5.04054 24.8536 4.14512 23.9582 4.14512 22.8536V17.6641V16.6641L4.14513 12.4746ZM16.5242 22.8536V18.6641L12.3346 18.6641V22.8536L16.5242 22.8536ZM18.5242 16.6641H22.7137L22.7137 12.4746L18.5242 12.4746L18.5242 16.6641ZM18.5242 22.8536L22.7137 22.8536V18.6641H18.5242L18.5242 22.8536ZM12.3347 12.4746H16.5242V16.6641H12.3347V12.4746V12.4746ZM10.3346 18.6641L10.3346 22.8536L6.14512 22.8536V18.6641H10.3346ZM10.3346 16.6641H6.14513V12.4746L10.3346 12.4746L10.3346 16.6641Z" fill="white"/>
</svg>
