<svg width="27" height="27" viewBox="0 0 27 27" fill="none" xmlns="http://www.w3.org/2000/svg">
<path d="M23.8443 3.10198L24.5514 2.39487L23.8443 3.10198ZM18.3848 1.8851L17.6777 1.17799L17.6777 1.17799L18.3848 1.8851ZM3.60132 16.6686L2.89421 15.9615L2.89421 15.9615L3.60132 16.6686ZM2.12133 22.3912L1.41422 23.0983L2.12133 22.3912ZM3.33821 23.6081L4.04532 22.901L3.33821 23.6081ZM3.86014 24.0675L4.47144 23.2761L3.86014 24.0675ZM24.3037 3.62391L25.0951 3.01261L24.3037 3.62391ZM23.1372 3.80909L23.5984 4.2703L25.0126 2.85609L24.5514 2.39487L23.1372 3.80909ZM21.9203 2.59221L23.1372 3.80909L24.5514 2.39487L23.3345 1.17799L21.9203 2.59221ZM19.0919 2.59221C19.8729 1.81116 21.1393 1.81116 21.9203 2.59221L23.3345 1.17799C21.7724 -0.384104 19.2398 -0.384102 17.6777 1.17799L19.0919 2.59221ZM17.6119 4.0722L19.0919 2.59221L17.6777 1.17799L16.1977 2.65798L17.6119 4.0722ZM17.6119 6.90062C16.8309 6.11958 16.8309 4.85325 17.6119 4.0722L16.1977 2.65798C14.6356 4.22008 14.6356 6.75274 16.1977 8.31484L17.6119 6.90062ZM10.9848 17.3757L17.6119 10.7486L16.1977 9.33439L9.57061 15.9615L10.9848 17.3757ZM4.30842 17.3757C5.08947 16.5946 6.35581 16.5946 7.13685 17.3757L8.55107 15.9615C6.98897 14.3994 4.45631 14.3994 2.89421 15.9615L4.30842 17.3757ZM2.82843 18.8557L4.30842 17.3757L2.89421 15.9615L1.41422 17.4414L2.82843 18.8557ZM2.82843 21.6841C2.04739 20.903 2.04739 19.6367 2.82843 18.8557L1.41422 17.4414C-0.147876 19.0035 -0.147877 21.5362 1.41422 23.0983L2.82843 21.6841ZM4.04532 22.901L2.82843 21.6841L1.41422 23.0983L2.6311 24.3152L4.04532 22.901ZM4.50653 23.3622L4.04532 22.901L2.6311 24.3152L3.09231 24.7764L4.50653 23.3622ZM10.2613 22.901C8.68078 24.4815 6.19448 24.607 4.47144 23.2761L3.24884 24.8589C5.75788 26.7969 9.37447 26.6162 11.6755 24.3152L10.2613 22.901ZM23.1372 10.0251L10.2613 22.901L11.6755 24.3152L24.5514 11.4393L23.1372 10.0251ZM23.5123 4.23521C24.8432 5.95825 24.7177 8.44455 23.1372 10.0251L24.5514 11.4393C26.8524 9.13825 27.0332 5.52165 25.0951 3.01261L23.5123 4.23521ZM4.53788 24.7764C4.18555 25.1287 3.63302 25.1556 3.24884 24.8589L4.47144 23.2761C4.06956 22.9657 3.49181 22.994 3.12366 23.3622L4.53788 24.7764ZM3.09231 24.7764C3.4915 25.1756 4.1387 25.1756 4.53788 24.7764L3.12366 23.3622C3.50553 22.9803 4.12466 22.9803 4.50653 23.3622L3.09231 24.7764ZM9.57061 15.9615C9.28907 16.243 8.83261 16.243 8.55107 15.9615L7.13685 17.3757C8.19944 18.4383 9.92224 18.4383 10.9848 17.3757L9.57061 15.9615ZM25.0951 3.01261C25.3919 3.3968 25.3649 3.94933 25.0126 4.30165L23.5984 2.88744C23.2303 3.25557 23.2019 3.83332 23.5123 4.23521L25.0951 3.01261ZM16.1977 8.31484C16.4792 8.59638 16.4792 9.05285 16.1977 9.33439L17.6119 10.7486C18.6745 9.68601 18.6745 7.96321 17.6119 6.90062L16.1977 8.31484ZM23.5984 4.2703C23.2165 3.88843 23.2165 3.2693 23.5984 2.88744L25.0126 4.30165C25.4118 3.90247 25.4118 3.25527 25.0126 2.85609L23.5984 4.2703Z" fill="white"/>
</svg>
