<svg width="45" height="45" viewBox="0 0 45 45" fill="none" xmlns="http://www.w3.org/2000/svg">
<path fill-rule="evenodd" clip-rule="evenodd" d="M20 2H25C34.9411 2 43 10.0589 43 20V25C43 34.9411 34.9411 43 25 43H20C10.0589 43 2 34.9411 2 25V20C2 10.0589 10.0589 2 20 2ZM0 20C0 8.9543 8.95431 0 20 0H25C36.0457 0 45 8.95431 45 20V25C45 36.0457 36.0457 45 25 45H20C8.9543 45 0 36.0457 0 25V20ZM32.8529 14.3182C34.1839 16.0412 34.0583 18.5275 32.4778 20.108L19.6019 32.9839C18.0214 34.5644 15.5351 34.69 13.8121 33.3591C13.7661 33.3235 13.7178 33.2925 13.6678 33.2658L13.3859 32.9839L12.1691 31.767C11.388 30.986 11.388 29.7197 12.1691 28.9386L13.6491 27.4586C14.4301 26.6776 15.6964 26.6776 16.4775 27.4586C17.5401 28.5212 19.2629 28.5212 20.3255 27.4586L26.9525 20.8316C28.0151 19.769 28.0151 18.0462 26.9525 16.9836C26.1715 16.2025 26.1715 14.9362 26.9525 14.1552L28.4325 12.6752C29.2136 11.8941 30.4799 11.8941 31.2609 12.6752L32.4778 13.892L32.7597 14.1739C32.7864 14.2239 32.8174 14.2722 32.8529 14.3182ZM33.892 21.5222C36.1318 19.2825 36.3627 15.7964 34.5861 13.2984C34.5364 13.1674 34.4588 13.0446 34.3533 12.939L33.892 12.4778L32.6752 11.261C31.1131 9.69886 28.5804 9.69886 27.0183 11.261L25.5383 12.7409C23.9762 14.303 23.9762 16.8357 25.5383 18.3978C25.8199 18.6793 25.8199 19.1358 25.5383 19.4173L18.9112 26.0444C18.6297 26.326 18.1732 26.326 17.8917 26.0444C16.3296 24.4823 13.7969 24.4823 12.2348 26.0444L10.7549 27.5244C9.19275 29.0865 9.19275 31.6192 10.7549 33.1813L11.9717 34.3981L12.4329 34.8594C12.5385 34.9649 12.6613 35.0425 12.7923 35.0922C15.2903 36.8688 18.7764 36.6379 21.0161 34.3981L33.892 21.5222Z" fill="#7077A1"/>
</svg>
