<svg width="45" height="45" viewBox="0 0 45 45" fill="none" xmlns="http://www.w3.org/2000/svg">
<path fill-rule="evenodd" clip-rule="evenodd" d="M20 2H25C34.9411 2 43 10.0589 43 20V25C43 34.9411 34.9411 43 25 43H20C10.0589 43 2 34.9411 2 25V20C2 10.0589 10.0589 2 20 2ZM0 20C0 8.9543 8.95431 0 20 0H25C36.0457 0 45 8.95431 45 20V25C45 36.0457 36.0457 45 25 45H20C8.9543 45 0 36.0457 0 25V20ZM15.2037 14C15.2037 12.3431 16.5468 11 18.2037 11H28.7933C30.4502 11 31.7933 12.3431 31.7933 14V16.0464C31.8441 16.0701 31.8936 16.0984 31.9413 16.1314L33.7044 17.3521C34.5137 17.9125 34.9966 18.8342 34.9966 19.8186V22.7999V31.0375V31.0375C34.9966 31.2446 34.9756 31.4468 34.9356 31.6421C34.6559 33.0092 33.4463 34.0375 31.9966 34.0375H15C13.3431 34.0375 12 32.6944 12 31.0375V31.0375V22.7999V19.8186C12 18.8342 12.4829 17.9125 13.2922 17.3521L15.0553 16.1314C15.1031 16.0983 15.1527 16.0699 15.2037 16.0462V14ZM31.7933 19.8006V18.4615L32.5658 18.9964C32.8356 19.1832 32.9966 19.4905 32.9966 19.8186V19.9709C32.6151 19.8347 32.2056 19.7738 31.7933 19.8006ZM29.7933 14V20.706L27.2252 22.6554C27.0513 22.7875 26.8389 22.8589 26.6205 22.8589H23.4983H20.376C20.1577 22.8589 19.9453 22.7875 19.7714 22.6554L17.2037 20.7063V14C17.2037 13.4477 17.6514 13 18.2037 13H28.7933C29.3456 13 29.7933 13.4477 29.7933 14ZM15.2037 18.4613V19.8006C14.7913 19.7737 14.3817 19.8347 14 19.9709V19.8186C14 19.4905 14.161 19.1832 14.4307 18.9964L15.2037 18.4613ZM14 22.7999V31.0375V31.0375C14 31.1065 14.007 31.1739 14.0203 31.239C14.1136 31.6947 14.5168 32.0375 15 32.0375H31.9966C32.4538 32.0375 32.8393 31.7307 32.9585 31.3118C32.9833 31.2246 32.9966 31.1326 32.9966 31.0375V31.0375V22.7999C32.9966 21.9732 32.0505 21.5035 31.392 22.0034L28.4344 24.2484C27.9127 24.6445 27.2756 24.8589 26.6205 24.8589H23.4983H20.376C19.721 24.8589 19.0839 24.6445 18.5622 24.2485L15.6046 22.0034C14.9461 21.5035 14 21.9732 14 22.7999ZM20.7068 15.8361C20.1545 15.8361 19.7068 16.2838 19.7068 16.8361C19.7068 17.3883 20.1545 17.8361 20.7068 17.8361H26.288C26.8403 17.8361 27.288 17.3883 27.288 16.8361C27.288 16.2838 26.8403 15.8361 26.288 15.8361H20.7068ZM19.7068 20.1927C19.7068 19.6404 20.1545 19.1927 20.7068 19.1927H26.288C26.8403 19.1927 27.288 19.6404 27.288 20.1927C27.288 20.745 26.8403 21.1927 26.288 21.1927H20.7068C20.1545 21.1927 19.7068 20.745 19.7068 20.1927Z" fill="#7077A1"/>
</svg>
