<svg width="20" height="23" viewBox="0 0 20 23" fill="none" xmlns="http://www.w3.org/2000/svg">
<path fill-rule="evenodd" clip-rule="evenodd" d="M14.183 10.3015C15.3038 9.21137 16 7.68699 16 6C16 2.68629 13.3137 0 10 0C6.68631 0 4.00002 2.68629 4.00002 6C4.00002 7.68699 4.69624 9.21136 5.81702 10.3015C2.45979 11.2516 0 14.3385 0 18V20C0 21.6569 1.34314 23 3 23H17C18.6569 23 20 21.6569 20 20V18C20 14.3385 17.5402 11.2516 14.183 10.3015ZM10.002 10L9.99804 10C7.78981 9.99893 6.00002 8.20848 6.00002 6C6.00002 3.79086 7.79088 2 10 2C12.2092 2 14 3.79086 14 6C14 8.20848 12.2102 9.99893 10.002 10ZM8 12C4.68629 12 2 14.6863 2 18L2 20C2 20.5523 2.44772 21 3 21H17C17.5523 21 18 20.5523 18 20V18C18 14.6863 15.3137 12 12 12L8 12Z" fill="white"/>
</svg>
