<svg width="23" height="24" viewBox="0 0 23 24" fill="none" xmlns="http://www.w3.org/2000/svg">
<path fill-rule="evenodd" clip-rule="evenodd" d="M6.2037 0.554977C4.54684 0.554977 3.2037 1.89812 3.2037 3.55498V5.60121C3.15274 5.62492 3.10309 5.65327 3.05532 5.68635L1.29224 6.90709C0.482919 7.46745 0 8.38919 0 9.37357V12.3549V20.5924V20.5925C0 22.2493 1.34315 23.5925 3 23.5925H19.9966C21.4463 23.5925 22.6559 22.5641 22.9356 21.1971C22.9756 21.0018 22.9966 20.7996 22.9966 20.5925V20.5924V12.3549V9.37357C22.9966 8.38919 22.5137 7.46745 21.7044 6.90709L19.9413 5.68635C19.8936 5.65336 19.8441 5.62508 19.7933 5.6014V3.55498C19.7933 1.89812 18.4502 0.554977 16.7933 0.554977H6.2037ZM19.7933 8.01651V9.35556C20.2056 9.32877 20.6151 9.3897 20.9966 9.52584V9.37357C20.9966 9.04544 20.8356 8.7382 20.5659 8.55141L19.7933 8.01651ZM17.7933 10.2609V3.55498C17.7933 3.00269 17.3456 2.55498 16.7933 2.55498H6.2037C5.65141 2.55498 5.2037 3.00269 5.2037 3.55498V10.2612L7.77142 12.2104C7.94534 12.3424 8.15769 12.4139 8.37605 12.4139H11.4983H14.6205C14.8389 12.4139 15.0513 12.3424 15.2252 12.2104L17.7933 10.2609ZM3.2037 9.35559V8.01623L2.43075 8.55141C2.16097 8.7382 2 9.04544 2 9.37357V9.52584C2.38167 9.38965 2.79131 9.32872 3.2037 9.35559ZM2 20.5924V12.3549C2 11.5281 2.94614 11.0585 3.60463 11.5584L6.56216 13.8034C7.08392 14.1995 7.72098 14.4139 8.37605 14.4139H11.4983H14.6205C15.2756 14.4139 15.9127 14.1995 16.4344 13.8034L19.392 11.5584C20.0505 11.0585 20.9966 11.5281 20.9966 12.3549V20.5924V20.5925C20.9966 20.6876 20.9833 20.7796 20.9585 20.8668C20.8393 21.2857 20.4538 21.5924 19.9966 21.5924H3C2.51677 21.5924 2.11358 21.2497 2.02032 20.794C2.007 20.7289 2 20.6615 2 20.5925V20.5924ZM7.70678 6.39104C7.70678 5.83876 8.1545 5.39104 8.70678 5.39104H14.288C14.8403 5.39104 15.288 5.83876 15.288 6.39104C15.288 6.94333 14.8403 7.39104 14.288 7.39104H8.70678C8.1545 7.39104 7.70678 6.94333 7.70678 6.39104ZM8.70678 8.74771C8.1545 8.74771 7.70678 9.19543 7.70678 9.74771C7.70678 10.3 8.1545 10.7477 8.70678 10.7477H14.288C14.8403 10.7477 15.288 10.3 15.288 9.74771C15.288 9.19543 14.8403 8.74771 14.288 8.74771H8.70678Z" fill="white"/>
</svg>
