<svg width="45" height="45" viewBox="0 0 45 45" fill="none" xmlns="http://www.w3.org/2000/svg">
<path fill-rule="evenodd" clip-rule="evenodd" d="M20 2H25C34.9411 2 43 10.0589 43 20V25C43 34.9411 34.9411 43 25 43H20C10.0589 43 2 34.9411 2 25V20C2 10.0589 10.0589 2 20 2ZM0 20C0 8.9543 8.95431 0 20 0H25C36.0457 0 45 8.95431 45 20V25C45 36.0457 36.0457 45 25 45H20C8.9543 45 0 36.0457 0 25V20ZM26.5 13C30.6421 13 34 16.3579 34 20.5C34 24.3329 31.123 27.4969 27.4117 27.9453C26.4274 28.0643 25.5596 28.6418 25.067 29.4947C23.9848 31.3682 22.0655 32.6892 19.8245 32.952C20.0174 32.5699 20.1888 32.1748 20.337 31.7684C21.0818 29.7257 19.4709 28.143 18.0266 27.8557C14.5898 27.1721 12 24.1363 12 20.5C12 16.3579 15.3579 13 19.5 13H26.5ZM36 20.5C36 15.2533 31.7467 11 26.5 11H19.5C14.2533 11 10 15.2533 10 20.5C10 25.1089 13.282 28.9512 17.6364 29.8173C18.2347 29.9363 18.667 30.5102 18.458 31.0833C18.1684 31.8773 17.7703 32.6191 17.2815 33.2907C16.8358 33.903 17.0564 34.8222 17.8072 34.9217C18.1975 34.9733 18.5956 35 19 35C22.3333 35 25.2434 33.1879 26.7989 30.495C26.9785 30.184 27.2952 29.974 27.6516 29.9309C32.3552 29.3625 36 25.3569 36 20.5ZM19.4185 20.3144C19.4185 21.0978 18.7834 21.7328 18 21.7328C17.2166 21.7328 16.5815 21.0978 16.5815 20.3144C16.5815 19.531 17.2166 18.8959 18 18.8959C18.7834 18.8959 19.4185 19.531 19.4185 20.3144ZM23 21.7328C23.7834 21.7328 24.4185 21.0978 24.4185 20.3144C24.4185 19.531 23.7834 18.8959 23 18.8959C22.2166 18.8959 21.5815 19.531 21.5815 20.3144C21.5815 21.0978 22.2166 21.7328 23 21.7328ZM29.4185 20.3144C29.4185 21.0978 28.7834 21.7328 28 21.7328C27.2166 21.7328 26.5815 21.0978 26.5815 20.3144C26.5815 19.531 27.2166 18.8959 28 18.8959C28.7834 18.8959 29.4185 19.531 29.4185 20.3144Z" fill="#7077A1"/>
</svg>
