<svg width="35" height="35" viewBox="0 0 35 35" fill="none" xmlns="http://www.w3.org/2000/svg">
<path fill-rule="evenodd" clip-rule="evenodd" d="M17.5 33C8.93959 33 2 26.0604 2 17.5C2 8.93959 8.93959 2 17.5 2C26.0604 2 33 8.93959 33 17.5C33 26.0604 26.0604 33 17.5 33ZM0 17.5C0 7.83502 7.83502 0 17.5 0C27.165 0 35 7.83502 35 17.5C35 27.165 27.165 35 17.5 35C7.83502 35 0 27.165 0 17.5ZM21.8786 13.2929L15.0858 20.0858L12.4644 17.4644C12.0739 17.0739 11.4407 17.0739 11.0502 17.4644C10.6597 17.855 10.6597 18.4881 11.0502 18.8787L13.8786 21.7071C14.1772 22.0056 14.6174 22.0759 14.9827 21.9181C15.369 22.1612 15.8854 22.1145 16.2218 21.7782L23.2929 14.7071C23.6834 14.3166 23.6834 13.6834 23.2929 13.2929C22.9023 12.9023 22.2692 12.9023 21.8786 13.2929Z" fill="white"/>
</svg>
